# xmcd
#
# Track frame offsets:
#	150
#	17980
#	32132
#	45619
#	60206
#
# Disc length: 990 seconds
#
# Revision: 1
# Processed by: cddbd v1.5.1PL0 Copyright (c) Steve Scherf et al.
# Submitted via: EasyCDDAExtractor 7.0.6.1
#
DISCID=3603dc05
DTITLE=Charlotte
DYEAR=1900
DGENRE=Country
TTITLE0=If You Could Only See
TTITLE1=Let's Talk About Love
TTITLE2=Lost
TTITLE3=Sinceely Blue
TTITLE4=First Steps
EXTD=
EXTT0=
EXTT1=
EXTT2=
EXTT3=
EXTT4=
PLAYORDER=
